PathFileType	4	(X/Y/Z)	Run_200 02
DataRate	CameraRate	NumFrames	NumMarkers	Units	OrigDataRate	OrigDataStartFrame	OrigNumFrames
100	100	4	42	mm	100	79	128
Frame#	Time	LPSI			RPSI			RTH1			RTH2			RTH3			LTH1			LTH2			LTH3			RTB1			RTB2			RTB3			LTB1			LTB2			LTB3			RCAL			RTOE			RMT5			LCAL			LTOE			LMT5			LACR			RACR			CLAV			C7			RUA1			RUA2			RUA3			RLEL			RMEL			LUA1			LUA2			LUA3			LLEL			LMEL			RFAsuperior			RFAradius			RFAulna			LFAsuperior			LFAradius			LFAulna			RASI			LASI		
		X1	Y1	Z1	X2	Y2	Z2	X3	Y3	Z3	X4	Y4	Z4	X5	Y5	Z5	X6	Y6	Z6	X7	Y7	Z7	X8	Y8	Z8	X9	Y9	Z9	X10	Y10	Z10	X11	Y11	Z11	X12	Y12	Z12	X13	Y13	Z13	X14	Y14	Z14	X15	Y15	Z15	X16	Y16	Z16	X17	Y17	Z17	X18	Y18	Z18	X19	Y19	Z19	X20	Y20	Z20	X21	Y21	Z21	X22	Y22	Z22	X23	Y23	Z23	X24	Y24	Z24	X25	Y25	Z25	X26	Y26	Z26	X27	Y27	Z27	X28	Y28	Z28	X29	Y29	Z29	X30	Y30	Z30	X31	Y31	Z31	X32	Y32	Z32	X33	Y33	Z33	X34	Y34	Z34	X35	Y35	Z35	X36	Y36	Z36	X37	Y37	Z37	X38	Y38	Z38	X39	Y39	Z39	X40	Y40	Z40	X41	Y41	Z41	X42	Y42	Z42	

79	  0.790000	619.303214	1143.548836	-526.726029	611.157702	1142.573940	-442.945636	733.592030	935.374334	-281.102573	816.152784	809.684247	-294.329125	764.400738	694.514603	-310.746437	717.809417	943.953770	-657.489053	752.062622	813.564908	-631.250322	633.562186	702.360606	-635.847332	872.660904	463.118842	-351.306444	830.826244	358.560500	-305.806327	884.128711	264.112076	-356.974150	575.341836	470.481987	-579.519498	483.488878	447.680370	-645.970787	435.790403	319.098342	-580.365029	780.293958	122.595902	-403.532067	1008.582063	123.826675	-358.695638	966.864493	 74.910123	-286.050730	262.469171	314.790936	-559.190481	367.389630	108.528367	-561.499784	313.012745	110.395525	-634.333804	802.818416	1589.534721	-623.453435	705.467610	1591.350025	-311.954101	821.147375	1548.715800	-427.830865	701.759560	1619.908338	-497.191324	601.971232	1527.313982	-245.022385	526.978946	1471.457201	-289.639762	523.407763	1444.584690	-212.241084	474.941062	1358.569902	-182.105339	452.672445	1341.134077	-261.325986	799.330291	1496.298785	-730.441233	735.277454	1417.772490	-754.245290	799.821936	1389.004766	-791.469161	818.146274	1304.392512	-826.104644	753.779702	1263.696370	-801.118868	530.907593	1300.365519	-179.931701	724.652799	1251.734443	-237.631936	680.812379	1192.629546	-231.538855	884.272289	1290.481833	-721.543305	908.431827	1348.375327	-577.315907	915.456881	1280.997898	-575.147357	782.973157	1073.900859	-346.908358	798.210626	1058.454664	-597.685288	
80	  0.800000	620.554755	1140.067838	-525.329568	612.258369	1138.502669	-441.513996	733.472101	931.234899	-278.516073	815.433599	805.364815	-289.877338	764.652566	690.369500	-310.910246	721.854513	940.774338	-656.080259	757.121219	810.930430	-628.808793	640.348779	698.191550	-634.790821	873.774579	460.200298	-352.276385	832.750555	355.148151	-307.010706	886.929353	261.171512	-358.125266	578.714045	467.505156	-578.747904	486.208280	448.792844	-645.449172	432.257817	322.948432	-579.634082	783.688061	120.252846	-405.642734	1011.727308	119.100736	-359.743026	969.462388	 69.217534	-288.247431	258.321682	325.706866	-559.851251	356.332583	116.089275	-560.851994	302.199272	117.691460	-633.906387	802.935605	1587.092154	-621.251270	706.508350	1587.412062	-308.948038	821.992076	1545.323403	-425.350422	702.016959	1616.985676	-493.902909	602.776278	1523.096218	-242.116728	528.230288	1466.734065	-288.032904	524.149691	1440.215242	-210.675054	476.299047	1353.944948	-180.464725	454.586086	1335.701437	-260.200955	797.650062	1493.687613	-728.863408	732.935834	1415.198089	-751.721149	797.291412	1387.258985	-790.140092	815.660786	1302.514405	-824.984738	751.215666	1262.139590	-799.613290	532.443717	1295.820071	-178.081744	727.345155	1248.985717	-234.203720	684.316512	1189.945301	-228.634382	882.578285	1286.917933	-720.980653	908.049544	1343.170753	-576.217037	914.806221	1275.766307	-575.005488	783.499018	1069.503152	-344.758516	798.484090	1054.769104	-595.616089	
81	  0.810000	621.646224	1135.300602	-523.874721	613.160003	1133.132454	-440.073728	733.574506	926.847627	-276.184450	815.174615	800.747311	-285.751910	765.160670	685.774685	-311.045812	725.721789	936.611708	-654.840733	762.329792	807.400793	-626.967576	647.517488	692.995413	-633.682939	874.398605	455.911558	-353.253010	833.693055	350.783793	-307.846139	887.735275	256.812955	-359.231942	583.371251	463.614727	-578.097021	490.140164	449.234747	-644.915849	430.222191	326.210342	-579.088290	783.476306	118.147771	-406.662861	1011.424433	111.116373	-363.165964	968.957620	 61.349936	-291.943303	255.973741	336.265810	-559.753022	346.758088	123.404995	-561.357676	292.872637	124.820307	-634.620841	802.922816	1583.681720	-619.501176	707.447183	1582.255439	-305.922465	822.708038	1540.938168	-422.912977	702.154273	1613.131762	-490.544044	603.826612	1517.286392	-238.807496	529.482407	1460.450267	-285.846064	525.414125	1434.047010	-208.497002	478.223270	1347.172399	-178.502343	457.052811	1328.398693	-258.658482	795.238299	1490.011840	-727.529849	729.989999	1411.655391	-749.133183	794.041104	1384.464486	-788.892481	812.354430	1299.562706	-823.897626	747.691678	1259.709942	-798.001106	534.841448	1289.351229	-175.986939	730.667350	1244.556077	-231.181919	688.521498	1185.457199	-225.890811	880.279031	1281.653521	-720.646027	907.706660	1335.821443	-575.313541	913.747368	1268.404683	-575.277727	784.183666	1064.145344	-341.819647	798.947167	1050.044453	-592.736498	
82	  0.820000	622.621631	1129.372256	-522.414350	613.977075	1126.595662	-438.584986	733.965351	921.802191	-274.647893	815.631999	795.628971	-282.737923	765.727966	680.654909	-311.011927	729.323941	931.517840	-653.744271	767.612156	802.964962	-625.757150	654.972304	686.747126	-632.671734	874.460793	450.146225	-354.064290	833.528888	345.258506	-308.449928	886.333075	250.946609	-360.523136	589.167253	458.802865	-577.729540	495.123080	449.025863	-644.406338	429.657775	328.790340	-578.754040	779.361214	116.418708	-407.419171	1007.393576	100.477011	-368.838686	964.448053	 53.682760	-296.031999	255.420994	346.102919	-558.756669	339.070898	130.316362	-563.079997	285.460030	131.629541	-636.573977	802.630617	1579.280917	-617.874879	708.243068	1575.977946	-302.884884	823.265761	1535.678861	-420.564488	702.175202	1608.344866	-487.200153	605.098167	1509.919609	-235.179175	530.738752	1452.580342	-283.029527	527.204030	1426.129377	-205.686641	480.694798	1338.338138	-176.124119	460.088091	1319.372908	-256.492756	792.361542	1485.568084	-726.320101	726.713086	1407.373232	-746.469711	790.240535	1380.738647	-787.674818	808.291069	1295.715918	-822.845012	743.268380	1256.531161	-796.337063	538.132265	1281.049553	-173.577366	734.672164	1238.478910	-228.442370	693.146813	1179.016883	-223.316975	877.425152	1274.828160	-720.600740	907.364389	1326.429436	-574.672864	912.126534	1259.131193	-575.788020	785.313762	1058.271344	-338.661494	799.887363	1044.736282	-589.631826	
